<?xml version="1.0" encoding="UTF-8"?>
<svg id="Capa_1" data-name="Capa 1" xmlns="http://www.w3.org/2000/svg" viewBox="0 0 1920 1080">
  <defs>
    <style>
      .cls-1, .cls-2 {
        stroke-width: 0px;
      }

      .cls-2 {
        fill: #36c102;
        fill-rule: evenodd;
      }
    </style>
  </defs>
  <g>
    <path class="cls-2" d="m780.8,415.52c0-2.99-2.79-5.88-5.81-5.96-3.03-.08-5.87,2.71-5.87,5.73,0,2,.66,3.39,2.08,4.53v30.71c0,45.52,69.15,50.59,69.15,4.68v-37.73c1.32-1.08,2.08-2.69,2.08-4.43,0-3.21-2.59-5.87-5.8-5.95-3.24-.08-5.87,2.49-5.87,5.72,0,1.75.78,3.39,2.08,4.51v37.76c0,35.96-54.12,31.15-54.12-4.44v-30.69c1.43-1.09,2.08-2.47,2.08-4.45Z"/>
    <path class="cls-2" d="m746.42,538.87c-3.7,6.41-1.47,14.68,4.93,18.4l46.31,26.91c6.4,3.72,14.7,1.48,18.4-4.93,3.7-6.41,1.47-14.68-4.93-18.4l-46.31-26.91c-6.4-3.71-14.69-1.48-18.39,4.93Z"/>
    <path class="cls-2" d="m771.45,491c-3.7,6.41-1.47,14.68,4.93,18.4l82.17,47.71c6.4,3.72,14.7,1.48,18.4-4.93,3.7-6.41,1.47-14.68-4.93-18.4l-82.17-47.71c-6.4-3.71-14.69-1.48-18.39,4.93Z"/>
    <path class="cls-2" d="m709.5,533.25c6.41,3.7,14.69,1.49,18.4-4.93,3.7-6.42,1.48-14.7-4.93-18.4l-10.62-6.13c-6.41-3.7-14.69-1.48-18.4,4.93-3.7,6.42-1.48,14.7,4.93,18.4l10.62,6.13Z"/>
    <path class="cls-2" d="m587.79,385.23c3.7-6.42,1.49-14.69-4.93-18.4l-47.55-27.45c-6.41-3.7-14.69-1.48-18.39,4.93-3.7,6.41-1.48,14.69,4.93,18.39l47.55,27.45c6.4,3.7,14.69,1.48,18.39-4.93Z"/>
    <path class="cls-2" d="m685.31,503.73c3.7-6.41,1.47-14.68-4.93-18.4l-118.7-68.93c-6.4-3.72-14.69-1.48-18.39,4.93-3.7,6.41-1.47,14.68,4.93,18.4l118.7,68.93c6.4,3.72,14.69,1.48,18.4-4.93Z"/>
    <path class="cls-2" d="m622.57,545.26l119.37,68.92c16.49,9.52,28.85-14.45,15.88-21.93l-121.78-70.31c-6.41-3.7-14.69-1.48-18.4,4.93-3.7,6.41-1.48,14.7,4.93,18.4Z"/>
    <path class="cls-2" d="m597.93,499.93l-25.08-14.48c-6.41-3.7-14.69-1.48-18.4,4.93-3.7,6.41-1.48,14.7,4.93,18.4l25.09,14.48c6.41,3.7,14.69,1.48,18.39-4.93,3.7-6.42,1.49-14.7-4.93-18.4Z"/>
    <path class="cls-2" d="m1183.55,231.15l-228.51-142.47c-10.24-6.39-20.81-9.64-31.38-9.68-10.57.03-21.14,3.29-31.38,9.68l-228.51,142.47c-20.31,12.67-30.78,33.05-30.79,58.33v44.27c-12.95-7.54-27.84-16.2-46.85-27.24-6.41-3.7-14.69-1.48-18.39,4.93-3.7,6.41-1.48,14.7,4.93,18.4l70.83,40.9c6.42,3.7,8.63,11.98,4.93,18.4-3.56,6.16-11.33,8.45-17.63,5.34l-9.66-5.55c-6.41-3.7-14.69-1.48-18.39,4.93-3.7,6.41-1.48,14.69,4.93,18.39l127.09,73.38c6.41,3.7,14.69,1.49,18.4-4.93,3.7-6.42,1.49-14.7-4.93-18.4l7.05,4.04.12.07-71.77-41.44c-6.41-3.7-8.63-11.98-4.93-18.39,2.28-3.95,6.29-6.31,10.54-6.67l54.16-1.88,55.31-1.92,11.12-.39,104.13-3.61,43.03,9.99,19.69,148.25-13.18-147.61,37.27-14.18,22.93,186.74,15.58,80.76-144.52,73.63c-31.13-16.7-61.86-33.58-92.37-50.62-1.78-.2-3.54-.76-5.19-1.72l-142.52-82.76h0l-17.69-10.27c-6.4-3.72-14.69-1.48-18.39,4.93-3.71,6.41-1.47,14.68,4.93,18.4l9.45,5.49v72.85c0,25.33,9.85,55.51,52.78,57.96h465.74c44.81-1.09,62.84-32.62,62.84-57.96v-396.52c0-25.28-10.47-45.67-30.79-58.33Zm-270.57,86.78c7.02,20.32-6.34,36.44-33.23,41.09,4.68-9.64,9.82-18.86,16.96-26.19-8,6.56-12.85,15.52-18.4,25.22-3.76-6.83-7.04-13.12-12.55-17.79,4.9,5.19,8.37,11.68,11.53,18.45-15.04-2.95-25.51-10.49-22.7-29.02,10.36.83,18.26,5.14,22.42,10.9,3.6-12.99,17.48-22.82,35.98-22.65Zm-101.8-134.24c14.28-3.28,31.88,15.23,47.52,46.58-4.57,11.17-14.83,19.49-28.6,21.5-8.26,1.21-16.67-.04-24.34-3.17-2.92-1.19-2.34.93.25,2.31,9.35,4.98,20.12,7.23,30.68,5.69,11.75-1.72,21.07-7.79,26.76-16.3,3.67,8.18,7.19,17.07,10.49,26.51-2.77,14.43-14.19,25.76-30.56,28.15-8.27,1.21-16.67-.04-24.35-3.17-2.92-1.18-2.34.93.25,2.31,9.36,4.99,20.12,7.24,30.68,5.69,13.05-1.91,23.11-9.19,28.5-19.2,3.06,9.91,5.86,20.34,8.35,31.15l.44,1.98c-.15.63-.32,1.25-.5,1.87-4.9,2.76-9.22,6.39-12.55,10.9-9.02-5.24-17.2-5.52-27.11-6.3-1.42,9.4-2.42,16.79-1.29,24.04-11.36-.05-21.45,4.63-28.46,12.38-4.44-2.26-8.58-4.01-13.44-5.23-1.77-6.33-3.41-12.84-4.93-19.49-17.51-76.3-12.04-142.67,12.22-148.23Zm-3.72,195.33c-.37,3.39-.51,6.8-.46,10.22l-87.46,3.21c5.36-9.38,12.73-14.2,21.08-20.74l-17.36-81.66c-2.94.22-8.55-.09-9.54-3.87l-3.54-13.53c-1.09-4.14.64-8.23,3.82-9.07l46.59-12.2c3.18-.83,6.68,1.88,7.77,6.04l3.54,13.53c.99,3.79-2.84,6.4-5.51,7.66l23.65,79.52c5.4.68,17.48,2.39,22.59,5-2.71,4.68-4.51,10.05-5.15,15.89Zm130.03,10.35c-.05.54-.1,1.07-.15,1.58l-22.67-5.66-98.83,3.62c-.04-3,.09-5.99.41-8.93,2.06-18.8,17.5-27.95,32-26.78,14.64,1.18,24.97,14.29,45.07,5.26,29.48-13.26,44.78.57,44.17,30.91Zm41.53-9.95c-14.65-3.15-28.37-6.03-27.03-5.6,1.29.41,13.23,5.32,25.31,10.32-.59,1.56-1.1,4.72-1.75,6.32l-13.49,6.67-16.3-4.07c.52-3.21.65-5.18.52-8.47.93.15,1.85.29,2.78.41l-2.82-1.19c-.51-10.82-3.24-22.84-11.09-30.74,7.34,1.68,19.51,3.13,20.76,3.5-1.19-.36-21.6-6.72-35.84-12.79,3.24-6.12,4.56-13.31,3.16-21.48,6.03-5.61,13.34-7.61,22.23-4.72l24.98,8.15c18.3,5.97,17.94,26.98,8.58,53.7Zm-10.11-57.76l-20.19-6.6c5.8-18.39-22.98-50.75-13.51-58.78,16.04-17.87,26.21,35.58,24.63,45.42,11.75-18.17,5.82-66.85,26.2-59.1,12.01,12.99-8.91,43.59-14.29,63.15,6.34-9.21,30.58-26.89,41.07-15.48,10.1,14.72-34.22,11.58-43.9,31.39Zm138.36,199.4c0,3.32-2.72,6.04-6.04,6.04h-36.25c-3.33,0-6.04-2.72-6.04-6.04v-36.25c0-3.32,2.71-6.04,6.04-6.04h36.25c3.32,0,6.04,2.72,6.04,6.04v36.25Zm0-65.02c0,3.32-2.72,6.04-6.04,6.04h-36.25c-3.33,0-6.04-2.72-6.04-6.04v-36.25c0-3.32,2.71-6.04,6.04-6.04h36.25c3.32,0,6.04,2.72,6.04,6.04v36.25Zm66.29,65.02c0,3.32-2.71,6.04-6.04,6.04h-36.25c-3.32,0-6.04-2.72-6.04-6.04v-36.25c0-3.32,2.72-6.04,6.04-6.04h36.25c3.33,0,6.04,2.72,6.04,6.04v36.25Zm0-65.02c0,3.32-2.71,6.04-6.04,6.04h-36.25c-3.32,0-6.04-2.72-6.04-6.04v-36.25c0-3.32,2.72-6.04,6.04-6.04h36.25c3.33,0,6.04,2.72,6.04,6.04v36.25Z"/>
    <path class="cls-2" d="m955.93,356.56s-.02,0-.02,0c.07.02.09.03.02,0Z"/>
    <polygon class="cls-2" points="1020.5 388.87 1001.33 394.66 1023.2 572.75 1039.27 656.07 1028.92 572.83 1020.5 388.87"/>
  </g>
  <g>
    <path class="cls-1" d="m528.59,910.44h-78.96c-2.47,0-3.7-1.23-3.7-3.7v-122.65c0-2.47,1.23-3.7,3.7-3.7h22.59c2.47,0,3.7,1.24,3.7,3.7v97.66h52.67c2.47,0,3.7,1.23,3.7,3.7v21.29c0,2.47-1.24,3.7-3.7,3.7Z"/>
    <path class="cls-1" d="m569.28,905.44c-8.98-5.18-16.09-12.2-21.34-21.06-5.25-8.85-7.87-18.56-7.87-29.11s2.64-20.49,7.91-29.44c5.28-8.95,12.42-16.01,21.43-21.2,9.01-5.18,18.85-7.78,29.53-7.78s20.63,2.59,29.67,7.78c9.04,5.18,16.2,12.25,21.48,21.2,5.28,8.95,7.91,18.76,7.91,29.44s-2.65,20.26-7.96,29.11c-5.31,8.86-12.5,15.88-21.57,21.06-9.07,5.18-18.98,7.78-29.72,7.78s-20.5-2.59-29.48-7.78Zm45.08-23.51c4.66-2.71,8.36-6.42,11.11-11.11,2.75-4.69,4.12-9.94,4.12-15.74s-1.37-11.08-4.12-15.83c-2.75-4.75-6.45-8.48-11.11-11.2-4.66-2.71-9.77-4.07-15.32-4.07s-10.66,1.36-15.32,4.07c-4.66,2.72-8.36,6.45-11.11,11.2-2.75,4.75-4.12,10.03-4.12,15.83s1.37,11.05,4.12,15.74c2.75,4.69,6.45,8.39,11.11,11.11,4.66,2.72,9.77,4.07,15.32,4.07s10.66-1.36,15.32-4.07Z"/>
    <path class="cls-1" d="m703.32,943.67c-8.12-2.1-14.8-4.72-20.04-7.87-1.17-.62-1.76-1.57-1.76-2.87,0-.62.15-1.3.46-2.04l8.42-16.57c.68-1.3,1.67-1.94,2.96-1.94.62,0,1.3.18,2.04.55,4.26,2.22,9.1,4.01,14.53,5.37,5.43,1.36,10.43,2.04,15,2.04,5.93,0,11.06-1.06,15.41-3.19,4.35-2.13,7.68-5.05,10-8.75,2.31-3.7,3.47-7.87,3.47-12.5v-.83c-9.69,8.89-19.35,13.33-28.97,13.33-10.37,0-19.7-2.44-28-7.31-8.3-4.88-14.78-11.51-19.44-19.9-4.66-8.39-6.99-17.62-6.99-27.68,0-11.05,2.33-20.9,6.99-29.58,4.66-8.67,11.12-15.43,19.39-20.27,8.27-4.84,17.65-7.27,28.14-7.27,5.74,0,11.45,1.17,17.13,3.52,5.68,2.35,10.31,5.43,13.89,9.26l1.94-7.5c.25-.86.75-1.57,1.53-2.13.77-.55,1.65-.83,2.64-.83h16.29c1.11,0,2,.34,2.69,1.02.68.68,1.02,1.57,1.02,2.68v90.26c0,10.12-2.28,19.3-6.85,27.54-4.57,8.24-11.03,14.73-19.39,19.49-8.36,4.75-18,7.13-28.93,7.13-7.59,0-15.45-1.05-23.56-3.15Zm38.37-65.86c4.32-2.5,7.68-5.94,10.09-10.32,2.41-4.38,3.61-9.29,3.61-14.72s-1.2-10.49-3.61-15c-2.41-4.5-5.77-8.07-10.09-10.69-4.32-2.62-9.16-3.93-14.53-3.93s-10.38,1.26-14.67,3.79c-4.29,2.53-7.64,6.05-10.04,10.55-2.41,4.51-3.61,9.63-3.61,15.37s1.2,10.43,3.61,14.81c2.41,4.38,5.75,7.79,10.04,10.23,4.29,2.44,9.15,3.66,14.58,3.66s10.31-1.25,14.63-3.75Z"/>
    <path class="cls-1" d="m809.36,781.58v-19.26c0-2.47,1.23-3.7,3.7-3.7h21.38c2.47,0,3.7,1.23,3.7,3.7v19.26c0,2.47-1.23,3.7-3.7,3.7h-21.38c-2.47,0-3.7-1.23-3.7-3.7Zm24.9,128.86h-21.01c-2.47,0-3.7-1.23-3.7-3.7v-104.33c0-2.47,1.23-3.7,3.7-3.7h21.01c2.47,0,3.7,1.23,3.7,3.7v104.33c0,2.47-1.23,3.7-3.7,3.7Z"/>
    <path class="cls-1" d="m995.14,798.71h23.51c.99,0,1.77.23,2.36.69.59.46.88,1.13.88,1.99,0,.5-.09,1.02-.28,1.57l-38.23,104.51c-.74,1.98-2.16,2.96-4.26,2.96h-20.83c-2.1,0-3.52-.99-4.26-2.96l-16.57-43.32-15.37,43.32c-.62,1.98-2.01,2.96-4.17,2.96h-21.11c-2.1,0-3.52-.99-4.26-2.96l-38.23-104.51c-.19-.56-.28-1.08-.28-1.57,0-.86.29-1.53.88-1.99.59-.46,1.37-.69,2.36-.69h22.31c2.16,0,3.55,1.02,4.17,3.05l23.7,74.33,21.01-74.33c.56-2.04,1.91-3.05,4.07-3.05h23.51c.99,0,1.77.23,2.36.69.59.46.88,1.13.88,1.99,0,.5-.09,1.02-.28,1.57l-8.98,25.64,17.03,47.49,23.88-74.33c.68-2.04,2.07-3.05,4.17-3.05Z"/>
    <path class="cls-1" d="m1121.22,798.71h15.83c2.47,0,3.7,1.23,3.7,3.7v104.33c0,2.47-1.24,3.7-3.7,3.7h-16.38c-2.04,0-3.43-1.02-4.17-3.06l-1.85-7.4c-8.15,8.58-18.42,12.87-30.83,12.87-10.43,0-20.01-2.59-28.74-7.78-8.73-5.18-15.63-12.23-20.69-21.15-5.06-8.92-7.59-18.65-7.59-29.21s2.55-20.26,7.64-29.11c5.09-8.85,12-15.86,20.73-21.01,8.73-5.15,18.28-7.73,28.65-7.73,12.59,0,22.92,4.29,31.01,12.87l2.22-8.05c.68-1.97,2.07-2.96,4.17-2.96Zm-21.71,82.99c4.54-2.62,8.1-6.25,10.69-10.88,2.59-4.63,3.89-9.87,3.89-15.74s-1.3-11.15-3.89-15.88c-2.59-4.72-6.14-8.44-10.65-11.15-4.5-2.71-9.53-4.07-15.09-4.07s-10.55,1.36-15,4.07c-4.44,2.72-7.93,6.43-10.46,11.15-2.53,4.72-3.8,10.01-3.8,15.88s1.25,11.13,3.75,15.78c2.5,4.66,5.95,8.28,10.37,10.88,4.41,2.59,9.4,3.89,14.95,3.89s10.69-1.31,15.23-3.93Z"/>
    <path class="cls-1" d="m1161.12,896.27c-.99-.8-1.48-1.7-1.48-2.68,0-.8.34-1.64,1.02-2.5l10.64-13.24c.86-1.05,1.76-1.57,2.69-1.57.68,0,1.51.34,2.5,1.02,4.32,3.21,8.87,5.76,13.65,7.64,4.78,1.88,9.55,2.82,14.3,2.82,3.76,0,6.8-.82,9.12-2.45s3.47-3.87,3.47-6.71c0-1.91-.63-3.58-1.9-5-1.27-1.42-3.33-2.81-6.2-4.17s-6.9-2.87-12.08-4.54c-9.44-3.08-17.17-7.31-23.19-12.68-6.02-5.37-9.03-12.71-9.03-22.03,0-5.86,1.46-11.32,4.4-16.38,2.93-5.06,7.41-9.15,13.42-12.27,6.02-3.12,13.38-4.67,22.08-4.67,6.11,0,12.34,1.19,18.7,3.56,6.36,2.38,11.97,5.85,16.85,10.41.86.8,1.3,1.67,1.3,2.59s-.4,1.79-1.2,2.59l-12.68,13.14c-.86.87-1.73,1.3-2.59,1.3-.8,0-1.67-.37-2.59-1.11-2.65-2.04-5.62-3.72-8.89-5.05-3.27-1.33-6.54-1.99-9.81-1.99-3.77,0-6.67.77-8.7,2.31-2.04,1.54-3.06,3.55-3.06,6.02,0,1.73.63,3.26,1.9,4.58,1.26,1.33,3.32,2.62,6.16,3.89,2.84,1.26,6.79,2.7,11.85,4.3,10.37,3.27,18.38,7.58,24.02,12.91,5.65,5.34,8.47,12.64,8.47,21.89,0,6.05-1.56,11.76-4.67,17.13-3.12,5.37-7.62,9.69-13.52,12.96-5.89,3.27-12.82,4.91-20.78,4.91-16.6,0-31.32-5.65-44.16-16.94Z"/>
    <path class="cls-1" d="m1289.79,910.44h-21.01c-2.47,0-3.7-1.23-3.7-3.7v-81.74h-10.18c-2.47,0-3.7-1.23-3.7-3.7v-18.88c0-2.47,1.23-3.7,3.7-3.7h10v-20c0-2.28,1.11-3.64,3.33-4.07l21.29-4.07c.25-.06.56-.09.93-.09.99,0,1.76.31,2.31.93.56.62.83,1.45.83,2.5v24.81h18.42c2.47,0,3.7,1.23,3.7,3.7v18.88c0,2.47-1.24,3.7-3.7,3.7h-18.51v81.74c0,2.47-1.23,3.7-3.7,3.7Z"/>
    <path class="cls-1" d="m1349.95,905.39c-8.76-5.21-15.63-12.27-20.6-21.15-4.97-8.89-7.45-18.58-7.45-29.07s2.34-20.29,7.03-29.21c4.69-8.92,11.22-16,19.58-21.24,8.36-5.24,17.76-7.87,28.19-7.87,11.29,0,21.12,2.5,29.48,7.5,8.36,5,14.75,11.9,19.16,20.69,4.41,8.79,6.62,18.78,6.62,29.95,0,1.98-.09,4.13-.28,6.48-.25,2.16-1.54,3.24-3.89,3.24h-76.83c1.3,4.75,3.39,8.87,6.3,12.36,2.9,3.49,6.37,6.16,10.41,8.01,4.04,1.85,8.38,2.78,13.01,2.78,4.32,0,8.25-.63,11.8-1.9,3.55-1.26,6.96-3.1,10.23-5.51.8-.62,1.6-.93,2.41-.93,1.05,0,1.94.55,2.69,1.67l9.9,14.07c.62.93.93,1.73.93,2.41,0,1.05-.5,1.94-1.48,2.69-5.18,4.07-10.94,7.24-17.26,9.49-6.33,2.25-13.13,3.38-20.41,3.38-10.92,0-20.77-2.61-29.53-7.82Zm44.57-78.22c-4.6-3.86-10.23-5.79-16.9-5.79s-12.14,1.96-16.99,5.88c-4.84,3.92-8.13,9.3-9.86,16.15h53.04c-1.61-6.97-4.71-12.39-9.3-16.25Z"/>
  </g>
</svg>